<?xml version="1.0" encoding="UTF-8"?>
<svg id="b" data-name="Layer 2" xmlns="http://www.w3.org/2000/svg" width="32" height="32" viewBox="0 0 32 32">
  <g id="c" data-name="Layer 1">
    <g>
      <rect width="32" height="32" style="fill: #283ee0;"/>
      <g>
        <g>
          <path d="M22.34,8.67c3.72,4.46,3.35,10.79-.32,14.25-3.66,3.46-10.21,3.67-13.37,0-2.43-2.83-2.79-7.9,0-10.69,2.36-2.36,6.19-2.36,8.56,0,1.89,1.89,1.89,4.95,0,6.84-1.51,1.51-3.96,1.51-5.48,0-1.21-1.21-1.21-3.17,0-4.38.97-.97,2.54-.97,3.5,0,.77.77.77,2.03,0,2.8-.54.54-1.7.67-2.24,0-.37-.45-.38-1.18,0-1.79" style="fill: none; stroke: #fff; stroke-miterlimit: 10;"/>
          <g>
            <circle cx="7.5" cy="14.01" r="2.08" style="fill: #fff;"/>
            <circle cx="14.87" cy="25.64" r="2.19" style="fill: #fff;"/>
            <circle cx="24.82" cy="18.4" r="2.09" style="fill: #fff;"/>
          </g>
          <circle cx="13.86" cy="16.53" r="1.66" style="fill: #fff;"/>
        </g>
        <g id="d" data-name="AI">
          <path d="M18.97,9.09l-.25-.52c-.27-.57-.79-1-1.4-1.15l-.56-.14c-.05-.01-.06-.08-.01-.1l.52-.25c.57-.27,1-.79,1.15-1.4l.14-.56c.01-.05.08-.06.1-.01l.25.52c.27.57.79,1,1.4,1.15l.56.14c.05.01.06.08.01.1l-.52.25c-.57.27-1,.79-1.15,1.4l-.14.56c-.01.05-.08.06-.1.01Z" style="fill: #fff;"/>
        </g>
      </g>
    </g>
  </g>
</svg>