<?xml version="1.0" encoding="UTF-8"?>
<svg id="b" data-name="Layer 2" xmlns="http://www.w3.org/2000/svg" width="32" height="32" viewBox="0 0 32 32">
  <g id="c" data-name="Layer 1">
    <g>
      <rect width="32" height="32" style="fill: #6727e2;"/>
      <g>
        <g>
          <path d="M23.91,15.04l-7.85,3.64-.03-.02h-.02s-5.74-2.66-5.74-2.66l-2.11-.98-2.12.98,7.89,3.66,2.09.97,2.12-.99,7.85-3.64-2.08-.96Z" style="fill: #fff;"/>
          <path d="M23.87,18.77l-7.85,3.64-.03-.02h-.02s-5.74-2.66-5.74-2.66l-2.11-.98-2.12.98,7.89,3.66,2.09.97,2.12-.99,7.85-3.64-2.08-.96Z" style="fill: #fff;"/>
        </g>
        <path d="M16.01,16.91l-9.99-4.64,9.99-4.64,9.99,4.64-9.99,4.64ZM18.95,12.11l-.77-.29c-.86-.32-1.53-1-1.83-1.87l-.27-.78c-.02-.07-.12-.07-.15,0l-.29.77c-.32.86-1,1.53-1.87,1.83l-.78.27c-.07.02-.07.12,0,.15l.77.29c.86.32,1.53,1,1.83,1.87l.27.78c.02.07.12.07.15,0l.29-.77c.32-.86,1-1.53,1.87-1.83l.78-.27c.07-.02.07-.12,0-.15Z" style="fill: #fff;"/>
      </g>
    </g>
  </g>
</svg>