<?xml version="1.0" encoding="UTF-8"?>
<svg xmlns="http://www.w3.org/2000/svg" viewBox="0 0 64 64">
    <g transform="translate(7 11.08) scale(2.50)" fill="var(--icon-color-accent, #a899e5)">
        <path d="M17.91,7.4l-7.85,3.64-.03-.02h-.02s-5.74-2.66-5.74-2.66l-2.11-.98L.04,8.37l7.89,3.66,2.09.97,2.12-.99,7.85-3.64-2.08-.96Z"/>
        <path d="M17.87,11.14l-7.85,3.64-.03-.02h-.02s-5.74-2.66-5.74-2.66l-2.11-.98-2.12.98,7.89,3.66,2.09.97,2.12-.99,7.85-3.64-2.08-.96Z"/>
    </g>
    <g transform="translate(7 11.08) scale(2.50)" fill="currentColor">
        <path d="M10.01,9.28L.03,4.64,10.01,0l9.99,4.64-9.99,4.64ZM12.95,4.48l-.77-.29c-.86-.32-1.53-1-1.83-1.87l-.27-.78c-.02-.07-.12-.07-.15,0l-.29.77c-.32.86-1,1.53-1.87,1.83l-.78.27c-.07.02-.07.12,0,.15l.77.29c.86.32,1.53,1,1.83,1.87l.27.78c.02.07.12.07.15,0l.29-.77c.32-.86,1-1.53,1.87-1.83l.78-.27c.07-.02.07-.12,0-.15Z"/>
    </g>
</svg>
