<?xml version="1.0" encoding="UTF-8"?>
<svg xmlns="http://www.w3.org/2000/svg" viewBox="0 0 64 64">
    <g transform="scale(0.64)" fill="currentColor">
        <path d="M70.68,38.77c.29.4-.64,1.47-1.2,1.38-8.69-3.69-19.84-1.66-28.28,1.92-5.44,2.31-19.54,11.11-13.29,18.26,8.38,9.56,38.64.35,44.41-10.32.97-1.8.93-4.6,3.07-4.72-.34,3.01-1.16,5.23-3.08,7.61-7.25,9.02-25.05,14.29-36.2,12.64-13.93-2.07-14.45-12.19-4.18-20.04,9.95-7.61,26.9-11.69,38.75-6.73Z"/>
        <path d="M58.72,31.88v-1.81c11.54-.41,27.6,5,23.36,19.55-3.87,13.29-26.81,22.73-39.67,22.48l.03-1.42c11.26-.88,24.2-5.03,32.42-13.06,8.13-7.95,9.44-18.75-2.48-23.63-1.5-.61-6.27-2.11-7.68-2.11h-5.98Z"/>
        <path d="M34.08,52.17c4.5-5.43,13.3-8.47,20.16-9.37,3.56-.47,14.71-.88,13.01,5.4-2.13,7.88-21.18,12.22-28.27,11.58-.7-.06-3.68-.5-2.2-1.46,1.23-.79,3.48.06,5.1.04,5.47-.07,14.1-2.63,18.77-5.52,4.67-2.89,8.39-7.8.06-8.63-6.93-.69-16.17,2.22-22.03,5.86-1.65,1.03-2.57,2.96-4.6,2.1Z"/>
        <path d="M51.11,30.79l.36,1.81c-11.27,1.23-30.49,10.44-32.45,22.82-1.5,9.46,8.28,13.96,16.15,14.88l-.41,1.39c-14.44-.99-23.46-12.82-12.99-25.49,7.11-8.6,18.63-13.3,29.34-15.42Z"/>
    </g>
    <circle cx="54" cy="10" r="5" fill="var(--icon-color-accent, #ff8700)"/>
</svg>
