<?xml version="1.0" encoding="UTF-8"?>
<svg xmlns="http://www.w3.org/2000/svg" viewBox="0 0 64 64">
    <g transform="translate(8.59 7.06) scale(2.50)" fill="none" stroke="currentColor" stroke-miterlimit="10" stroke-width="0.87">
        <path d="M14.75,3.26c3.25,3.89,2.92,9.4-.28,12.42-3.19,3.01-8.89,3.2-11.65,0C.7,13.21.39,8.79,2.82,6.36c2.06-2.06,5.4-2.06,7.46,0,1.65,1.65,1.65,4.32,0,5.96-1.32,1.32-3.45,1.32-4.77,0-1.05-1.05-1.05-2.76,0-3.82.84-.84,2.21-.84,3.05,0,.67.67.67,1.77,0,2.44-.47.47-1.48.58-1.95,0-.32-.39-.33-1.03,0-1.56"/>
    </g>
    <g transform="translate(8.59 7.06) scale(2.50)" fill="var(--icon-color-accent, #a899e5)">
        <circle cx="1.81" cy="7.91" r="1.81"/>
        <circle cx="8.23" cy="18.04" r="1.91"/>
        <circle cx="16.91" cy="11.73" r="1.82"/>
    </g>
    <g transform="translate(8.59 7.06) scale(2.50)" fill="currentColor">
        <circle cx="7.36" cy="10.11" r="1.45"/>
        <path d="M11.81,3.63l-.21-.45c-.24-.5-.69-.87-1.22-1l-.48-.12s-.05-.07,0-.09l.45-.21c.5-.24.87-.69,1-1.22l.12-.48s.07-.05.09,0l.21.45c.24.5.69.87,1.22,1l.48.12s.05.07,0,.09l-.45.21c-.5.24-.87.69-1,1.22l-.12.48s-.07.05-.09,0Z"/>
    </g>
</svg>
